<?xml version="1.0" standalone="no"?><!DOCTYPE svg PUBLIC "-//W3C//DTD SVG 1.1//EN" "http://www.w3.org/Graphics/SVG/1.1/DTD/svg11.dtd"><svg t="1742812526221" class="icon" viewBox="0 0 1024 1024" version="1.1" xmlns="http://www.w3.org/2000/svg" p-id="1652" xmlns:xlink="http://www.w3.org/1999/xlink" width="200" height="200"><path d="M166.8 71.9h661.9c30.4 1.4 60 15.2 80.4 37.8 16.3 17.8 26.9 40.8 29.6 64.8 0.7 5.1 0.5 10.3 1.3 15.4v466.7c-0.8 7.3-0.6 14.7-1.8 21.9-4.2 28.8-19.9 55.5-42.7 73.5-20 16-45.5 24.9-71.1 25.2H187.7c-10.1-0.1-20.2 0.4-30.2-1-26.5-3.2-51.7-16.1-70-35.7C75.8 728 66.8 713 61.6 696.7c-3.7-10.9-5.1-22.3-5.9-33.7V186.2c0.6-5.9 0.8-11.9 1.9-17.7 4.6-27.5 19.6-53.1 41.3-70.6 19-15.7 43.2-24.8 67.9-26M354 216.2c-18.8 2.4-37.3 11.4-49.1 26.5-11.7 14.5-16.5 33.4-16.6 51.8 0 25.5 7.2 50.5 17.1 73.8 8.3 19.6 18.6 38.2 30 56.2-17.1 26.9-32.1 55.7-40.8 86.5-5.1 18.8-8 38.5-5.3 57.9 2.3 15.8 8.9 31.3 20.2 42.7 10.4 10.8 24.5 17.6 39.2 20.3 19.2 3.7 39.1 1.4 57.9-3.3 32.5-8.5 62.7-24 90.9-41.9 27.9 17.6 57.6 33.1 89.6 41.6 19.9 5.1 40.9 7.6 61.2 3.3 15.8-3.3 30.9-11.6 41.1-24.2 9.5-11.3 14.8-25.7 16.6-40.2 2.3-18.3-0.4-36.8-5.1-54.6-8.7-31.4-23.8-60.7-41.2-88.1 17-26.8 31.8-55.3 40.6-86 5.3-19.3 8.3-39.8 5.2-59.7-2.4-15.8-9.3-31.2-20.9-42.3-11.8-11.8-27.9-18.4-44.2-20.4-18.8-2.3-37.9 0.4-56.1 5.4-30.9 8.7-59.8 23.6-86.7 40.8-24-15.2-49.3-28.6-76.3-37.7-21.5-7-44.6-11.3-67.3-8.4z" p-id="1653"></path><path d="M354.4 263.7c13.3-3.5 27.3-1.4 40.4 1.9 21.8 5.6 42.3 15.2 61.8 26.4-33.7 27-64.5 57.8-91.5 91.5-11.5-20-21.4-41.3-26.9-63.8-3.1-13.3-5.1-27.7-0.5-40.9 2.4-7.6 9-13.2 16.7-15.1zM591.5 268.1c14.4-4.4 29.7-7.7 44.8-5.5 8.1 1.2 16.2 5.4 20 12.9 5.3 10.9 4.6 23.6 2.7 35.2-4.7 25.9-15.8 50-28.8 72.7-27-33.8-57.7-64.5-91.5-91.5 16.8-9.6 34.4-18 52.8-23.8zM392.3 424.6c29.9-39.8 65.5-75.4 105.3-105.3 39.8 29.9 75.5 65.5 105.4 105.4-30 39.8-65.5 75.4-105.3 105.3-39.9-30-75.4-65.6-105.4-105.4m95.2-66.3c-20.1 2.9-38.4 15.6-48.3 33.3-7.9 13.8-10.4 30.6-7.3 46.2 3.1 15.7 12.1 30.2 24.8 39.9 9.9 7.7 22.1 12.5 34.6 13.6 17.1 1.7 34.7-3.4 48.1-14.2 11.4-9 19.7-21.8 23.3-35.9 3.3-13.1 2.6-27.2-2-39.8-5.7-15.5-17.3-28.8-32-36.3-12.5-6.7-27.2-9-41.2-6.8z" p-id="1654"></path><path d="M492.7 404.7c10.4-3 22.1 4 24.7 14.5 3.1 10.2-3.4 21.7-13.5 24.8-8.3 2.9-18.2-0.6-23-7.9-4-5.6-4.7-13.2-2-19.5 2.4-5.8 7.6-10.3 13.8-11.9zM365 465.6c27.1 33.7 57.8 64.6 91.6 91.6-16.9 9.6-34.5 18.2-53.1 23.9-13.6 4.1-27.9 7.3-42.2 5.7-7.6-0.8-15.6-3.6-20.3-10-5.3-7.2-6.3-16.5-6.2-25.2 0.6-15.8 5.1-31.1 10.7-45.8 5.4-13.9 12.2-27.2 19.5-40.2zM538.7 557.2c33.8-27 64.5-57.8 91.5-91.5 8.4 14.5 15.8 29.7 21.5 45.5 4.8 13.8 8.7 28.3 8.7 43.1-0.3 8.9-1.8 18.7-8.5 25.2-7.4 6.9-18.1 8-27.8 7.8-14.6-0.6-28.8-4.6-42.5-9.6-14.8-5.5-29.1-12.7-42.9-20.5zM58.1 806.8c3.6-8 12.1-13.3 20.8-13.3h831.7c4.8-0.1 9.9-0.3 14.5 1.7 8 3.2 13.8 11.1 14.3 19.7 0.8 29.2-10.3 58.3-29.9 79.9-20.4 22.9-50.2 36.8-80.8 38.3h-662c-26.1-1.2-51.6-11.4-71.2-28.7-22.4-19.5-36.9-47.9-39.3-77.5-0.4-6.8-1.2-13.9 1.9-20.1z" p-id="1655"></path></svg>