<?xml version="1.0" standalone="no"?><!DOCTYPE svg PUBLIC "-//W3C//DTD SVG 1.1//EN" "http://www.w3.org/Graphics/SVG/1.1/DTD/svg11.dtd"><svg t="1742812261456" class="icon" viewBox="0 0 1024 1024" version="1.1" xmlns="http://www.w3.org/2000/svg" p-id="5970" xmlns:xlink="http://www.w3.org/1999/xlink" width="200" height="200"><path d="M213.333333 85.333333C142.848 85.333333 85.333333 142.848 85.333333 213.333333v512c0 70.485333 57.514667 128 128 128h101.333334l353.322666 82.688c9.514667 2.133333 18.688 2.645333 27.989334 2.645334a129.536 129.536 0 0 0 125.354666-100.010667L936.021333 340.053333c15.658667-68.864-28.672-137.685333-97.365333-153.344l-174.634667-40.021333A128.981333 128.981333 0 0 0 554.666667 85.333333z m0 85.333334h341.333334c23.466667 0 42.666667 19.2 42.666666 42.666666v512c0 23.466667-19.2 42.666667-42.666666 42.666667H213.333333c-23.466667 0-42.666667-19.2-42.666666-42.666667V213.333333c0-23.466667 19.2-42.666667 42.666666-42.666666z m469.333334 68.010666l137.344 30.634667c22.997333 5.205333 37.12 29.184 32 52.053333L737.28 819.968a42.624 42.624 0 0 1-50.645333 32l-69.333334-16C656 813.994667 682.666667 772.992 682.666667 725.333333zM384 256s-170.666667 138.154667-170.666667 216.021333c0 51.797333 42.154667 94.634667 93.354667 94.634667 17.792 0 35.498667-6.314667 50.645333-16L326.656 640h114.688l-30.677333-88.021333c13.994667 9.002667 31.018667 14.677333 50.688 14.677333 51.157333 0 93.312-42.837333 93.312-94.677333C554.666667 394.325333 384 256 384 256z" p-id="5971"></path></svg>